HIERARCHY
ROOT hip
{
  OFFSET 0.00112043 5.09927 -9.65472
  CHANNELS 6 Xposition Yposition Zposition Zrotation Xrotation Yrotation
  JOINT abdomen
  {
    OFFSET 0 -1.186 -1.5018
    CHANNELS 3 Zrotation Xrotation Yrotation
    JOINT abdomen2
    {
      OFFSET 0 9.964 0.2134
      CHANNELS 3 Zrotation Xrotation Yrotation
      JOINT chest
      {
        OFFSET 0 13.134 -3.2573
        CHANNELS 3 Zrotation Xrotation Yrotation
        JOINT neck
        {
          OFFSET 0 20.686 -1.6905
          CHANNELS 3 Zrotation Xrotation Yrotation
          JOINT head
          {
            OFFSET 0 7.238 -0.1237
            CHANNELS 3 Zrotation Xrotation Yrotation
            End Site
            {
              OFFSET 0 0 0
            }
          }
        }
        JOINT lCollar
        {
          OFFSET 1.7069 20.075 5.0056
          CHANNELS 3 Zrotation Xrotation Yrotation
          JOINT lShldr
          {
            OFFSET 13.6458 -0.047 -4.849
            CHANNELS 3 Zrotation Xrotation Yrotation
            JOINT lForeArm
            {
              OFFSET 28.3255 -0.9759 2.2888
              CHANNELS 3 Zrotation Xrotation Yrotation
              JOINT lHand
              {
                OFFSET 22.1583 -0.53 10.8316
                CHANNELS 3 Zrotation Xrotation Yrotation
                JOINT lThumb1
                {
                  OFFSET 0.786 0.112 2.5817
                  CHANNELS 3 Zrotation Xrotation Yrotation
                  JOINT lThumb2
                  {
                    OFFSET 0.3601 -0.878 4.2331
                    CHANNELS 3 Zrotation Xrotation Yrotation
                    JOINT lThumb2_End
                    {
                      OFFSET 1.8127 -1.216 2.2227
                      CHANNELS 3 Zrotation Xrotation Yrotation
                      End Site
                      {
                        OFFSET 0.0181 -0.0122 0.0222
                      }
                    }
                  }
                }
                JOINT lCarpal1
                {
                  OFFSET 0.9571 1.114 1.7695
                  CHANNELS 3 Zrotation Xrotation Yrotation
                  JOINT lIndex1
                  {
                    OFFSET 4.1246 0.487 4.1451
                    CHANNELS 3 Zrotation Xrotation Yrotation
                    JOINT lIndex2
                    {
                      OFFSET 3.4052 -1.454 2.7682
                      CHANNELS 3 Zrotation Xrotation Yrotation
                      JOINT lIndex2_End
                      {
                        OFFSET 1.4531 -1.795 1.2713
                        CHANNELS 3 Zrotation Xrotation Yrotation
                        End Site
                        {
                          OFFSET 0.0145 -0.0179 0.0127
                        }
                      }
                    }
                  }
                  JOINT lMid1
                  {
                    OFFSET 5.6954 0.21 2.1184
                    CHANNELS 3 Zrotation Xrotation Yrotation
                    JOINT lMid2
                    {
                      OFFSET 3.9766 -1.54 2.3863
                      CHANNELS 3 Zrotation Xrotation Yrotation
                      JOINT lMid2_End
                      {
                        OFFSET 1.4042 -1.926 1.125
                        CHANNELS 3 Zrotation Xrotation Yrotation
                        End Site
                        {
                          OFFSET 0.014 -0.0193 0.0113
                        }
                      }
                    }
                  }
                }
                JOINT lCarpal2
                {
                  OFFSET 2.0956 0.66 -0.3894
                  CHANNELS 3 Zrotation Xrotation Yrotation
                  JOINT lRing1
                  {
                    OFFSET 5.0395 -0.09 2.4971
                    CHANNELS 3 Zrotation Xrotation Yrotation
                    JOINT lRing2
                    {
                      OFFSET 3.7921 -1.552 1.4806
                      CHANNELS 3 Zrotation Xrotation Yrotation
                      JOINT lRing2_End
                      {
                        OFFSET 1.4655 -1.808 0.9609
                        CHANNELS 3 Zrotation Xrotation Yrotation
                        End Site
                        {
                          OFFSET 0.0147 -0.0181 0.0096
                        }
                      }
                    }
                  }
                  JOINT lPinky1
                  {
                    OFFSET 4.9141 -1.269 0.3591
                    CHANNELS 3 Zrotation Xrotation Yrotation
                    JOINT lPinky2
                    {
                      OFFSET 3.1477 -1.685 0.8462
                      CHANNELS 3 Zrotation Xrotation Yrotation
                      JOINT lPinky2_End
                      {
                        OFFSET 0.8055 -1.585 0.7955
                        CHANNELS 3 Zrotation Xrotation Yrotation
                        End Site
                        {
                          OFFSET 0.0081 -0.0158 0.008
                        }
                      }
                    }
                  }
                }
              }
            }
          }
        }
        JOINT rCollar
        {
          OFFSET -1.7069 20.075 5.0056
          CHANNELS 3 Zrotation Xrotation Yrotation
          JOINT rShldr
          {
            OFFSET -13.6458 -0.047 -4.849
            CHANNELS 3 Zrotation Xrotation Yrotation
            JOINT rForeArm
            {
              OFFSET -28.3255 -0.9759 2.2888
              CHANNELS 3 Zrotation Xrotation Yrotation
              JOINT rHand
              {
                OFFSET -22.1583 -0.53 10.8316
                CHANNELS 3 Zrotation Xrotation Yrotation
                JOINT rThumb1
                {
                  OFFSET -0.786 0.112 2.5817
                  CHANNELS 3 Zrotation Xrotation Yrotation
                  JOINT rThumb2
                  {
                    OFFSET -0.3601 -0.878 4.2331
                    CHANNELS 3 Zrotation Xrotation Yrotation
                    JOINT rThumb2_End
                    {
                      OFFSET -1.8127 -1.216 2.2227
                      CHANNELS 3 Zrotation Xrotation Yrotation
                      End Site
                      {
                        OFFSET -0.0181 -0.0122 0.0222
                      }
                    }
                  }
                }
                JOINT rCarpal1
                {
                  OFFSET -0.9571 1.114 1.7695
                  CHANNELS 3 Zrotation Xrotation Yrotation
                  JOINT rIndex1
                  {
                    OFFSET -4.1246 0.487 4.1451
                    CHANNELS 3 Zrotation Xrotation Yrotation
                    JOINT rIndex2
                    {
                      OFFSET -3.4052 -1.454 2.7682
                      CHANNELS 3 Zrotation Xrotation Yrotation
                      JOINT rIndex2_End
                      {
                        OFFSET -1.4531 -1.795 1.2713
                        CHANNELS 3 Zrotation Xrotation Yrotation
                        End Site
                        {
                          OFFSET -0.0145 -0.018 0.0127
                        }
                      }
                    }
                  }
                  JOINT rMid1
                  {
                    OFFSET -5.6954 0.21 2.1184
                    CHANNELS 3 Zrotation Xrotation Yrotation
                    JOINT rMid2
                    {
                      OFFSET -3.9766 -1.54 2.3863
                      CHANNELS 3 Zrotation Xrotation Yrotation
                      JOINT rMid2_End
                      {
                        OFFSET -1.4042 -1.926 1.125
                        CHANNELS 3 Zrotation Xrotation Yrotation
                        End Site
                        {
                          OFFSET -0.014 -0.0193 0.0113
                        }
                      }
                    }
                  }
                }
                JOINT rCarpal2
                {
                  OFFSET -2.0956 0.66 -0.3894
                  CHANNELS 3 Zrotation Xrotation Yrotation
                  JOINT rRing1
                  {
                    OFFSET -5.0395 -0.09 2.4971
                    CHANNELS 3 Zrotation Xrotation Yrotation
                    JOINT rRing2
                    {
                      OFFSET -3.7921 -1.552 1.4806
                      CHANNELS 3 Zrotation Xrotation Yrotation
                      JOINT rRing2_End
                      {
                        OFFSET -1.4655 -1.808 0.9609
                        CHANNELS 3 Zrotation Xrotation Yrotation
                        End Site
                        {
                          OFFSET -0.0147 -0.0181 0.0096
                        }
                      }
                    }
                  }
                  JOINT rPinky1
                  {
                    OFFSET -4.9141 -1.269 0.3592
                    CHANNELS 3 Zrotation Xrotation Yrotation
                    JOINT rPinky2
                    {
                      OFFSET -3.1477 -1.685 0.8462
                      CHANNELS 3 Zrotation Xrotation Yrotation
                      JOINT rPinky2_End
                      {
                        OFFSET -0.8055 -1.585 0.7955
                        CHANNELS 3 Zrotation Xrotation Yrotation
                        End Site
                        {
                          OFFSET -0.0081 -0.0158 0.008
                        }
                      }
                    }
                  }
                }
              }
            }
          }
        }
      }
    }
  }
  JOINT lThigh
  {
    OFFSET 8.367 -8.2066 0.5982
    CHANNELS 3 Zrotation Xrotation Yrotation
    JOINT lShin
    {
      OFFSET 2.1923 -43.463 -0.4932
      CHANNELS 3 Zrotation Xrotation Yrotation
      JOINT lFoot
      {
        OFFSET 0.7333 -45.8593 -2.6451
        CHANNELS 3 Zrotation Xrotation Yrotation
        End Site
        {
          OFFSET 2.6618 -4.2699 12.3931
        }
      }
    }
  }
  JOINT rThigh
  {
    OFFSET -8.367 -8.2066 0.5982
    CHANNELS 3 Zrotation Xrotation Yrotation
    JOINT rShin
    {
      OFFSET -2.1923 -43.463 -0.4931
      CHANNELS 3 Zrotation Xrotation Yrotation
      JOINT rFoot
      {
        OFFSET -0.7333 -45.8593 -2.6451
        CHANNELS 3 Zrotation Xrotation Yrotation
        End Site
        {
          OFFSET -2.6618 -4.2699 12.3931
        }
      }
    }
  }
}
MOTION
Frames:	4
Frame Time:	0.0333333
-0.611676 1.42903 -11.2743 -180 -89.9981 -180 -0.11812 9.36434 -0.11863 -0.220801 18.7289 -0.221929 -0.220801 18.7289 -0.221929 5.3969e-006 -13.3522 1.16977e-006 1.59659e-007 -8.12677 1.31232e-007 -14.6503 -5.63469 5.54498 -77.1746 -3.85392 -15.141 11.1136 44.1868 -40.9642 -39.0648 28.7705 30.2164 -8.44309e-007 -3.54279e-006 -8.58859e-007 1.46844e-006 3.01965e-006 6.21084e-007 1.24825e-006 -1.04628e-006 -4.7555e-007 3.18055e-015 1.19271e-015 -2.38542e-015 -8.44309e-007 -3.54279e-006 -8.58859e-007 1.46844e-006 3.01965e-006 6.21084e-007 1.24825e-006 -1.04628e-006 -4.7555e-007 -8.44309e-007 -3.54279e-006 -8.58859e-007 1.46844e-006 3.01965e-006 6.21084e-007 1.24825e-006 -1.04628e-006 -4.7555e-007 3.18055e-015 1.19271e-015 -2.38542e-015 -8.44309e-007 -3.54279e-006 -8.58859e-007 1.46844e-006 3.01965e-006 6.21084e-007 1.24825e-006 -1.04628e-006 -4.7555e-007 -8.44309e-007 -3.54279e-006 -8.58859e-007 1.46844e-006 3.01965e-006 6.21084e-007 1.24825e-006 -1.04628e-006 -4.7555e-007 -0.607422 0.433263 -8.61064 75.8927 1.41999 -35.2984 -33.9935 2.76051 59.9731 -3.12827 24.2761 3.39523 1.90091e-006 5.86056e-008 -6.76097e-006 2.23675e-006 7.0725e-007 -5.53963e-007 3.22857e-006 -8.08688e-007 -4.38961e-007 1.39149e-015 6.85807e-015 1.27222e-014 1.90091e-006 5.86056e-008 -6.76097e-006 2.23675e-006 7.0725e-007 -5.53963e-007 3.22857e-006 -8.08688e-007 -4.38961e-007 1.90091e-006 5.86056e-008 -6.76097e-006 2.23675e-006 7.0725e-007 -5.53963e-007 3.22857e-006 -8.08688e-007 -4.38961e-007 1.39149e-015 6.85807e-015 1.27222e-014 1.90091e-006 5.86056e-008 -6.76097e-006 2.23675e-006 7.0725e-007 -5.53963e-007 3.22857e-006 -8.08688e-007 -4.38961e-007 1.90091e-006 5.86056e-008 -6.76097e-006 2.23675e-006 7.0725e-007 -5.53963e-007 3.22857e-006 -8.08688e-007 -4.38961e-007 21.929 1.24363 1.63525 -1.90718 4.78249 1.29128 12.4406 16.7391 -0.497082 -31.6154 -35.4073 -25.7996 -50.554 77.9086 45.4608 -12.7007 24.0576 -0.681176 
-0.611676 1.42903 -11.2743 -180 -89.9981 -180 -0.117798 9.31934 -0.118917 -0.220151 18.6389 -0.222629 -0.220151 18.6389 -0.222629 4.54654e-006 -13.1954 4.51611e-007 3.22997e-008 -8.21252 2.00199e-007 -14.9217 -5.41059 5.39198 -77.0161 -3.94131 -15.2344 11.1441 44.1566 -40.567 -38.8673 28.9527 29.8501 -2.09099e-006 -2.49858e-006 -3.80824e-007 -1.24929e-006 1.0455e-006 4.75048e-007 -2.09099e-006 -2.49858e-006 -3.80824e-007 1.65521e-032 -3.97569e-016 2.38542e-015 -2.09099e-006 -2.49858e-006 -3.80824e-007 -1.24929e-006 1.0455e-006 4.75048e-007 -2.09099e-006 -2.49858e-006 -3.80824e-007 -2.09099e-006 -2.49858e-006 -3.80824e-007 -1.24929e-006 1.0455e-006 4.75048e-007 -2.09099e-006 -2.49858e-006 -3.80824e-007 1.65521e-032 -3.97569e-016 2.38542e-015 -2.09099e-006 -2.49858e-006 -3.80824e-007 -1.24929e-006 1.0455e-006 4.75048e-007 -2.09099e-006 -2.49858e-006 -3.80824e-007 -2.09099e-006 -2.49858e-006 -3.80824e-007 -1.24929e-006 1.0455e-006 4.75048e-007 -2.09099e-006 -2.49858e-006 -3.80824e-007 -0.607421 0.433268 -8.61063 75.8927 1.42 -35.2984 -33.9935 2.7605 59.9731 -3.12828 24.2761 3.39521 -2.43315e-006 -1.35655e-006 -2.6903e-006 -4.98393e-006 1.79382e-006 -1.79096e-005 -2.61975e-006 -1.44195e-006 7.29581e-007 -2.98177e-015 8.15017e-015 3.18055e-015 -2.43315e-006 -1.35655e-006 -2.6903e-006 -4.98393e-006 1.79382e-006 -1.79096e-005 -2.61975e-006 -1.44195e-006 7.29581e-007 -2.43315e-006 -1.35655e-006 -2.6903e-006 -4.98393e-006 1.79382e-006 -1.79096e-005 -2.61975e-006 -1.44195e-006 7.29581e-007 -2.98177e-015 8.15017e-015 3.18055e-015 -2.43315e-006 -1.35655e-006 -2.6903e-006 -4.98393e-006 1.79382e-006 -1.79096e-005 -2.61975e-006 -1.44195e-006 7.29581e-007 -2.43315e-006 -1.35655e-006 -2.6903e-006 -4.98393e-006 1.79382e-006 -1.79096e-005 -2.61975e-006 -1.44195e-006 7.29581e-007 21.929 1.24363 1.63525 -1.90718 4.78249 1.29128 12.4406 16.7391 -0.497082 -31.6154 -35.4073 -25.7996 -50.554 77.9086 45.4608 -12.7007 24.0576 -0.681176 
-0.611676 1.42903 -11.2743 -180 -89.9981 -180 -0.117476 9.27434 -0.119206 -0.219505 18.5489 -0.22333 -0.219505 18.5489 -0.223329 8.22138e-007 -13.0371 1.48432e-007 9.99007e-008 -8.29831 -2.41055e-008 -15.1923 -5.1858 5.24009 -76.8578 -4.02896 -15.3276 11.1748 44.1265 -40.17 -38.668 29.1338 29.4824 1.46427e-006 3.02301e-006 6.15615e-007 -1.46427e-006 -3.02301e-006 -6.15615e-007 1.46427e-006 3.02301e-006 6.15615e-007 -0 -7.95139e-016 -0 1.46427e-006 3.02301e-006 6.15615e-007 -1.46427e-006 -3.02301e-006 -6.15615e-007 1.46427e-006 3.02301e-006 6.15615e-007 1.46427e-006 3.02301e-006 6.15615e-007 -1.46427e-006 -3.02301e-006 -6.15615e-007 1.46427e-006 3.02301e-006 6.15615e-007 -0 -7.95139e-016 -0 1.46427e-006 3.02301e-006 6.15615e-007 -1.46427e-006 -3.02301e-006 -6.15615e-007 1.46427e-006 3.02301e-006 6.15615e-007 1.46427e-006 3.02301e-006 6.15615e-007 -1.46427e-006 -3.02301e-006 -6.15615e-007 1.46427e-006 3.02301e-006 6.15615e-007 -0.60742 0.433238 -8.61063 75.8927 1.41999 -35.2984 -33.9935 2.76051 59.9731 -3.12826 24.2761 3.39524 -5.96354e-016 1.98785e-016 -6.36111e-015 -7.95139e-016 5.96354e-016 -1.27222e-014 4.17448e-015 1.39149e-015 -1.59028e-014 -3.97569e-016 -1.98785e-016 -0 1.39149e-015 -6.16232e-015 3.18055e-015 1.78906e-015 6.95746e-015 -9.54166e-015 2.78299e-015 4.57205e-015 -6.36111e-015 1.39149e-015 -6.16232e-015 3.18055e-015 1.78906e-015 6.95746e-015 -9.54166e-015 2.78299e-015 4.57205e-015 -6.36111e-015 -3.97569e-016 -1.98785e-016 -0 1.39149e-015 -6.16232e-015 3.18055e-015 1.78906e-015 6.95746e-015 -9.54166e-015 2.78299e-015 4.57205e-015 -6.36111e-015 1.39149e-015 -6.16232e-015 3.18055e-015 1.78906e-015 6.95746e-015 -9.54166e-015 2.78299e-015 4.57205e-015 -6.36111e-015 21.929 1.24363 1.63525 -1.90718 4.78249 1.29128 12.4406 16.7391 -0.497082 -31.6154 -35.4073 -25.7996 -50.554 77.9086 45.4608 -12.7007 24.0576 -0.681176 
-0.611676 1.42903 -11.2743 -180 -89.9981 -180 -0.117156 9.22936 -0.119495 -0.218863 18.4589 -0.224031 -0.218863 18.4589 -0.224031 2.06909e-006 -12.8809 1.57721e-007 7.39764e-008 -8.38405 -1.89021e-009 -15.4623 -4.9603 5.08935 -76.6996 -4.11685 -15.4205 11.2058 44.0966 -39.7733 -38.4671 29.3137 29.1134 -8.36522e-007 -3.54666e-006 -8.49892e-007 6.06694e-007 -1.33611e-006 -5.95345e-006 -1.98626e-031 -3.57812e-015 -3.18055e-015 9.54166e-015 -3.97569e-015 -0 -8.36522e-007 -3.54666e-006 -8.49892e-007 6.06694e-007 -1.33611e-006 -5.95345e-006 -6.36111e-015 -3.97569e-015 -0 -8.36522e-007 -3.54666e-006 -8.49892e-007 6.06694e-007 -1.33611e-006 -5.95345e-006 -6.36111e-015 -3.97569e-015 -0 9.54166e-015 -3.97569e-015 -0 -8.36522e-007 -3.54666e-006 -8.49892e-007 6.06694e-007 -1.33611e-006 -5.95345e-006 -6.36111e-015 -3.97569e-015 -0 -8.36522e-007 -3.54666e-006 -8.49892e-007 6.06694e-007 -1.33611e-006 -5.95345e-006 -6.36111e-015 -3.97569e-015 -0 -0.60742 0.433246 -8.61063 75.8927 1.42 -35.2984 -33.9935 2.76049 59.9731 -3.12827 24.2761 3.39523 1.45902e-006 2.41332e-006 -7.24362e-006 2.7687e-006 -1.52854e-006 -3.37397e-006 3.00438e-006 2.17473e-006 -9.03578e-007 -1.39149e-015 -4.17448e-015 -3.18055e-015 1.45902e-006 2.41332e-006 -7.24362e-006 2.7687e-006 -1.52854e-006 -3.37397e-006 3.00438e-006 2.17473e-006 -9.03578e-007 1.45902e-006 2.41332e-006 -7.24362e-006 2.7687e-006 -1.52854e-006 -3.37397e-006 3.00438e-006 2.17473e-006 -9.03578e-007 -1.39149e-015 -4.17448e-015 -3.18055e-015 1.45902e-006 2.41332e-006 -7.24362e-006 2.7687e-006 -1.52854e-006 -3.37397e-006 3.00438e-006 2.17473e-006 -9.03578e-007 1.45902e-006 2.41332e-006 -7.24362e-006 2.7687e-006 -1.52854e-006 -3.37397e-006 3.00438e-006 2.17473e-006 -9.03578e-007 21.929 1.24363 1.63525 -1.90718 4.78249 1.29128 12.4406 16.7391 -0.497082 -31.6154 -35.4073 -25.7996 -50.554 77.9086 45.4608 -12.7007 24.0576 -0.681176 
